<mxfile host="app.diagrams.net" modified="2023-05-24T21:30:50.476Z" agent="Mozilla/5.0 (Macintosh; Intel Mac OS X 10_15_7) AppleWebKit/537.36 (KHTML, like Gecko) Chrome/113.0.0.0 Safari/537.36" etag="l-NpX96KG5gUQYvQRQvv" version="21.3.3" type="device">
  <diagram name="Page-1" id="MUNQ2RagDNplRtzWQptZ">
    <mxGraphModel dx="3464" dy="1247" grid="1" gridSize="10" guides="1" tooltips="1" connect="1" arrows="1" fold="1" page="1" pageScale="1" pageWidth="850" pageHeight="1100" background="#ffffff" math="0" shadow="0">
      <root>
        <mxCell id="0" />
        <mxCell id="1" parent="0" />
        <mxCell id="4DpClMkkZlTGhRyB2elV-107" value="" style="rounded=1;whiteSpace=wrap;html=1;fillColor=none;dashed=1;dashPattern=8 8;" parent="1" vertex="1">
          <mxGeometry x="153.25" y="163.69" width="390" height="428.31" as="geometry" />
        </mxCell>
        <mxCell id="4DpClMkkZlTGhRyB2elV-103" value="" style="shape=image;verticalLabelPosition=bottom;labelBackgroundColor=default;verticalAlign=top;aspect=fixed;imageAspect=0;image=https://cdn-icons-png.flaticon.com/512/757/757179.png;" parent="1" vertex="1">
          <mxGeometry x="5" y="319.69" width="129" height="129" as="geometry" />
        </mxCell>
        <mxCell id="4DpClMkkZlTGhRyB2elV-38" value="" style="rounded=1;whiteSpace=wrap;html=1;fillColor=none;strokeColor=#FF9500;strokeWidth=2;" parent="1" vertex="1">
          <mxGeometry x="-390" y="330" width="198.82" height="120" as="geometry" />
        </mxCell>
        <mxCell id="4DpClMkkZlTGhRyB2elV-18" value="" style="shape=image;verticalLabelPosition=bottom;labelBackgroundColor=default;verticalAlign=top;aspect=fixed;imageAspect=0;image=https://upload.wikimedia.org/wikipedia/commons/thumb/1/1b/Traefik.logo.png/1200px-Traefik.logo.png;" parent="1" vertex="1">
          <mxGeometry x="186.81000000000006" y="348.69" width="67.06" height="92.5" as="geometry" />
        </mxCell>
        <mxCell id="4DpClMkkZlTGhRyB2elV-28" value="" style="shape=image;verticalLabelPosition=bottom;labelBackgroundColor=default;verticalAlign=top;aspect=fixed;imageAspect=0;image=https://static-00.iconduck.com/assets.00/portainer-icon-366x512-rt9if7pd.png;" parent="1" vertex="1">
          <mxGeometry x="197.93000000000012" y="181.99" width="57.18" height="80" as="geometry" />
        </mxCell>
        <mxCell id="4DpClMkkZlTGhRyB2elV-29" value="" style="shape=image;verticalLabelPosition=bottom;labelBackgroundColor=default;verticalAlign=top;aspect=fixed;imageAspect=0;image=https://gitlab.developers.cam.ac.uk/uploads/-/system/project/avatar/4542/compose.png;" parent="1" vertex="1">
          <mxGeometry x="374.90999999999997" y="57.68999999999998" width="64.69" height="82" as="geometry" />
        </mxCell>
        <mxCell id="4DpClMkkZlTGhRyB2elV-32" value="" style="shape=image;verticalLabelPosition=bottom;labelBackgroundColor=default;verticalAlign=top;aspect=fixed;imageAspect=0;image=https://icons.veryicon.com/png/o/miscellaneous/two-color-icon-library/user-286.png;" parent="1" vertex="1">
          <mxGeometry x="-590" y="340" width="100" height="100" as="geometry" />
        </mxCell>
        <mxCell id="4DpClMkkZlTGhRyB2elV-33" value="" style="shape=image;verticalLabelPosition=bottom;labelBackgroundColor=default;verticalAlign=top;aspect=fixed;imageAspect=0;image=https://gnulinux.ch/bl-content/uploads/pages/21d48109461a5a4809df8924600e170b/cloudflare_logo.png;" parent="1" vertex="1">
          <mxGeometry x="-360" y="350" width="132.36" height="60" as="geometry" />
        </mxCell>
        <mxCell id="4DpClMkkZlTGhRyB2elV-34" value="Cloudflare" style="text;html=1;strokeColor=none;fillColor=none;align=center;verticalAlign=middle;whiteSpace=wrap;rounded=0;fontFamily=Roboto;fontSource=https%3A%2F%2Ffonts.googleapis.com%2Fcss%3Ffamily%3DRoboto;fontSize=15;" parent="1" vertex="1">
          <mxGeometry x="-323.82" y="410" width="60" height="30" as="geometry" />
        </mxCell>
        <mxCell id="4DpClMkkZlTGhRyB2elV-40" value="&lt;span style=&quot;color: rgb(0, 0, 0); font-size: 13px; font-style: normal; font-variant-ligatures: normal; font-variant-caps: normal; font-weight: 400; letter-spacing: normal; orphans: 2; text-align: center; text-indent: 0px; text-transform: none; widows: 2; word-spacing: 0px; -webkit-text-stroke-width: 0px; background-color: rgb(251, 251, 251); text-decoration-thickness: initial; text-decoration-style: initial; text-decoration-color: initial; float: none; display: inline !important;&quot;&gt;example.ch&lt;/span&gt;" style="endArrow=classic;startArrow=classic;html=1;rounded=0;strokeWidth=2;entryX=0.076;entryY=0.317;entryDx=0;entryDy=0;entryPerimeter=0;fontSize=13;fontFamily=Roboto;fontSource=https%3A%2F%2Ffonts.googleapis.com%2Fcss%3Ffamily%3DRoboto;" parent="1" target="4DpClMkkZlTGhRyB2elV-33" edge="1">
          <mxGeometry x="-0.2003" width="50" height="50" relative="1" as="geometry">
            <mxPoint x="-500" y="370" as="sourcePoint" />
            <mxPoint x="-400" y="370" as="targetPoint" />
            <mxPoint as="offset" />
          </mxGeometry>
        </mxCell>
        <mxCell id="4DpClMkkZlTGhRyB2elV-39" value="Luca&#39;s device" style="text;html=1;strokeColor=none;fillColor=none;align=center;verticalAlign=middle;whiteSpace=wrap;rounded=0;fontFamily=Roboto;fontSource=https%3A%2F%2Ffonts.googleapis.com%2Fcss%3Ffamily%3DRoboto;fontSize=15;" parent="1" vertex="1">
          <mxGeometry x="-590" y="430" width="100" height="30" as="geometry" />
        </mxCell>
        <mxCell id="4DpClMkkZlTGhRyB2elV-43" value="" style="curved=1;endArrow=classic;html=1;rounded=0;entryX=0.9;entryY=0.6;entryDx=0;entryDy=0;entryPerimeter=0;strokeWidth=2;exitX=-0.008;exitY=0.613;exitDx=0;exitDy=0;exitPerimeter=0;" parent="1" source="4DpClMkkZlTGhRyB2elV-38" target="4DpClMkkZlTGhRyB2elV-32" edge="1">
          <mxGeometry width="50" height="50" relative="1" as="geometry">
            <mxPoint x="-407" y="401" as="sourcePoint" />
            <mxPoint x="-495.5" y="400.7000000000003" as="targetPoint" />
            <Array as="points">
              <mxPoint x="-447" y="430" />
            </Array>
          </mxGeometry>
        </mxCell>
        <mxCell id="4DpClMkkZlTGhRyB2elV-45" value="token" style="text;html=1;strokeColor=none;fillColor=none;align=center;verticalAlign=middle;whiteSpace=wrap;rounded=0;fontFamily=Roboto;fontSource=https%3A%2F%2Ffonts.googleapis.com%2Fcss%3Ffamily%3DRoboto;fontSize=13;" parent="1" vertex="1">
          <mxGeometry x="-460" y="414" width="60" height="30" as="geometry" />
        </mxCell>
        <mxCell id="4DpClMkkZlTGhRyB2elV-46" value="" style="shape=image;verticalLabelPosition=bottom;labelBackgroundColor=default;verticalAlign=top;aspect=fixed;imageAspect=0;image=https://cdn-icons-png.flaticon.com/512/3076/3076409.png;" parent="1" vertex="1">
          <mxGeometry x="-320.59" y="220" width="60" height="60" as="geometry" />
        </mxCell>
        <mxCell id="4DpClMkkZlTGhRyB2elV-50" value="" style="endArrow=classic;html=1;rounded=0;entryX=0.343;entryY=1;entryDx=0;entryDy=0;entryPerimeter=0;strokeWidth=2;" parent="1" edge="1">
          <mxGeometry width="50" height="50" relative="1" as="geometry">
            <mxPoint x="-300" y="343" as="sourcePoint" />
            <mxPoint x="-300.0099999999999" y="283" as="targetPoint" />
          </mxGeometry>
        </mxCell>
        <mxCell id="4DpClMkkZlTGhRyB2elV-51" value="" style="endArrow=none;html=1;rounded=0;entryX=0.343;entryY=1;entryDx=0;entryDy=0;entryPerimeter=0;startArrow=classic;startFill=1;endFill=0;strokeWidth=2;" parent="1" edge="1">
          <mxGeometry width="50" height="50" relative="1" as="geometry">
            <mxPoint x="-285" y="343" as="sourcePoint" />
            <mxPoint x="-285" y="283" as="targetPoint" />
          </mxGeometry>
        </mxCell>
        <mxCell id="4DpClMkkZlTGhRyB2elV-52" value="Identity Provider" style="text;html=1;strokeColor=none;fillColor=none;align=center;verticalAlign=middle;whiteSpace=wrap;rounded=0;fontFamily=Roboto;fontSource=https%3A%2F%2Ffonts.googleapis.com%2Fcss%3Ffamily%3DRoboto;fontSize=15;" parent="1" vertex="1">
          <mxGeometry x="-356.73" y="190" width="125.82" height="30" as="geometry" />
        </mxCell>
        <mxCell id="4DpClMkkZlTGhRyB2elV-53" value="" style="shape=image;verticalLabelPosition=bottom;labelBackgroundColor=default;verticalAlign=top;aspect=fixed;imageAspect=0;image=https://cdn0.iconfinder.com/data/icons/small-n-flat/24/678129-lock-512.png;" parent="1" vertex="1">
          <mxGeometry x="-467" y="420.5" width="17" height="17" as="geometry" />
        </mxCell>
        <mxCell id="4DpClMkkZlTGhRyB2elV-54" value="Docker-Compose" style="text;html=1;strokeColor=none;fillColor=none;align=center;verticalAlign=middle;whiteSpace=wrap;rounded=0;fontFamily=Roboto;fontSource=https%3A%2F%2Ffonts.googleapis.com%2Fcss%3Ffamily%3DRoboto;fontSize=15;" parent="1" vertex="1">
          <mxGeometry x="329.75" y="133.68999999999994" width="155" height="30" as="geometry" />
        </mxCell>
        <mxCell id="4DpClMkkZlTGhRyB2elV-58" value="" style="strokeWidth=2;html=1;shape=mxgraph.flowchart.annotation_2;align=left;labelPosition=right;pointerEvents=1;rotation=90;" parent="1" vertex="1">
          <mxGeometry x="-353.38" y="325" width="119.12" height="350" as="geometry" />
        </mxCell>
        <mxCell id="4DpClMkkZlTGhRyB2elV-62" value="" style="shape=image;verticalLabelPosition=bottom;labelBackgroundColor=default;verticalAlign=top;aspect=fixed;imageAspect=0;image=https://cdn-icons-png.flaticon.com/512/2059/2059030.png;" parent="1" vertex="1">
          <mxGeometry x="-367.15" y="504" width="60" height="60" as="geometry" />
        </mxCell>
        <mxCell id="4DpClMkkZlTGhRyB2elV-63" value="Firewall&lt;br&gt;(WAF)" style="text;html=1;strokeColor=none;fillColor=none;align=center;verticalAlign=middle;whiteSpace=wrap;rounded=0;fontFamily=Roboto;fontSource=https%3A%2F%2Ffonts.googleapis.com%2Fcss%3Ffamily%3DRoboto;fontSize=15;" parent="1" vertex="1">
          <mxGeometry x="-385.82" y="570" width="100" height="30" as="geometry" />
        </mxCell>
        <mxCell id="4DpClMkkZlTGhRyB2elV-64" value="" style="shape=image;verticalLabelPosition=bottom;labelBackgroundColor=default;verticalAlign=top;aspect=fixed;imageAspect=0;image=https://cdn2.iconfinder.com/data/icons/whcompare-servers-web-hosting/50/ddos-protection-512.png;" parent="1" vertex="1">
          <mxGeometry x="-276.59" y="502" width="65" height="65" as="geometry" />
        </mxCell>
        <mxCell id="4DpClMkkZlTGhRyB2elV-65" value="DDoS&lt;br&gt;Protection" style="text;html=1;strokeColor=none;fillColor=none;align=center;verticalAlign=middle;whiteSpace=wrap;rounded=0;fontFamily=Roboto;fontSource=https%3A%2F%2Ffonts.googleapis.com%2Fcss%3Ffamily%3DRoboto;fontSize=15;" parent="1" vertex="1">
          <mxGeometry x="-301.09" y="572" width="100" height="30" as="geometry" />
        </mxCell>
        <mxCell id="4DpClMkkZlTGhRyB2elV-67" value="" style="shape=image;verticalLabelPosition=bottom;labelBackgroundColor=default;verticalAlign=top;aspect=fixed;imageAspect=0;image=https://cdn-icons-png.flaticon.com/512/1455/1455321.png;" parent="1" vertex="1">
          <mxGeometry x="-191.18" y="501" width="66" height="66" as="geometry" />
        </mxCell>
        <mxCell id="4DpClMkkZlTGhRyB2elV-68" value="Traffic&lt;br&gt;Accelerator" style="text;html=1;strokeColor=none;fillColor=none;align=center;verticalAlign=middle;whiteSpace=wrap;rounded=0;fontFamily=Roboto;fontSource=https%3A%2F%2Ffonts.googleapis.com%2Fcss%3Ffamily%3DRoboto;fontSize=15;" parent="1" vertex="1">
          <mxGeometry x="-207.58999999999995" y="570" width="100" height="30" as="geometry" />
        </mxCell>
        <mxCell id="4DpClMkkZlTGhRyB2elV-71" value="&lt;span style=&quot;font-weight: normal;&quot;&gt;Virtual Network Functions&lt;/span&gt;" style="text;html=1;strokeColor=none;fillColor=none;align=center;verticalAlign=middle;whiteSpace=wrap;rounded=0;fontFamily=Roboto;fontSource=https%3A%2F%2Ffonts.googleapis.com%2Fcss%3Ffamily%3DRoboto;fontSize=15;fontStyle=1" parent="1" vertex="1">
          <mxGeometry x="-406.14" y="620" width="231.09" height="30" as="geometry" />
        </mxCell>
        <mxCell id="4DpClMkkZlTGhRyB2elV-73" value="&lt;font style=&quot;font-size: 12px;&quot;&gt;&lt;font style=&quot;font-size: 12px;&quot; face=&quot;Roboto&quot;&gt;Access&lt;br style=&quot;font-size: 12px;&quot;&gt;&lt;/font&gt;Denied&lt;/font&gt;" style="endArrow=classic;html=1;rounded=0;strokeWidth=3;fillColor=#f5f5f5;strokeColor=#666666;dashed=1;dashPattern=1 1;fontSize=12;" parent="1" edge="1">
          <mxGeometry x="-0.2318" y="-25" width="50" height="50" relative="1" as="geometry">
            <mxPoint x="-191.18" y="425" as="sourcePoint" />
            <mxPoint x="-110" y="425" as="targetPoint" />
            <mxPoint as="offset" />
          </mxGeometry>
        </mxCell>
        <mxCell id="4DpClMkkZlTGhRyB2elV-74" value="" style="shape=image;verticalLabelPosition=bottom;labelBackgroundColor=default;verticalAlign=top;aspect=fixed;imageAspect=0;image=https://img.uxwing.com/wp-content/themes/uxwing/download/checkmark-cross/cross-icon.png;" parent="1" vertex="1">
          <mxGeometry x="-107.5" y="415.81" width="17.5" height="17.5" as="geometry" />
        </mxCell>
        <mxCell id="4DpClMkkZlTGhRyB2elV-75" value="Portainer" style="text;html=1;strokeColor=none;fillColor=none;align=center;verticalAlign=middle;whiteSpace=wrap;rounded=0;fontFamily=Roboto;fontSource=https%3A%2F%2Ffonts.googleapis.com%2Fcss%3Ffamily%3DRoboto;fontSize=15;" parent="1" vertex="1">
          <mxGeometry x="159.42999999999995" y="257.93000000000006" width="125.82" height="30" as="geometry" />
        </mxCell>
        <mxCell id="4DpClMkkZlTGhRyB2elV-89" value="" style="shape=image;verticalLabelPosition=bottom;labelBackgroundColor=default;verticalAlign=top;aspect=fixed;imageAspect=0;image=https://www.docker.com/wp-content/uploads/2022/03/Moby-logo.png;" parent="1" vertex="1">
          <mxGeometry x="242.34999999999997" y="73.69000000000001" width="79.72" height="57.17" as="geometry" />
        </mxCell>
        <mxCell id="4DpClMkkZlTGhRyB2elV-55" value="CloudFlare ZeroTrust&lt;br&gt;Tunnel" style="text;html=1;strokeColor=none;fillColor=none;align=center;verticalAlign=middle;whiteSpace=wrap;rounded=0;fontFamily=Roboto;fontSource=https%3A%2F%2Ffonts.googleapis.com%2Fcss%3Ffamily%3DRoboto;fontSize=15;" parent="1" vertex="1">
          <mxGeometry x="-121.12" y="300" width="155" height="30" as="geometry" />
        </mxCell>
        <mxCell id="4DpClMkkZlTGhRyB2elV-101" value="" style="shape=link;html=1;rounded=0;strokeWidth=2;exitX=1.011;exitY=0.601;exitDx=0;exitDy=0;exitPerimeter=0;" parent="1" source="4DpClMkkZlTGhRyB2elV-33" target="4DpClMkkZlTGhRyB2elV-94" edge="1">
          <mxGeometry width="100" relative="1" as="geometry">
            <mxPoint x="-230" y="381" as="sourcePoint" />
            <mxPoint x="-110" y="380" as="targetPoint" />
          </mxGeometry>
        </mxCell>
        <mxCell id="4DpClMkkZlTGhRyB2elV-102" value="Secure tunnel" style="text;html=1;strokeColor=none;fillColor=none;align=center;verticalAlign=middle;whiteSpace=wrap;rounded=0;fontFamily=Roboto;fontSource=https%3A%2F%2Ffonts.googleapis.com%2Fcss%3Ffamily%3DRoboto;fontSize=13;" parent="1" vertex="1">
          <mxGeometry x="-204.82000000000002" y="359.15999999999997" width="125.82" height="30" as="geometry" />
        </mxCell>
        <mxCell id="4DpClMkkZlTGhRyB2elV-106" value="Luca&#39;s server" style="text;html=1;strokeColor=none;fillColor=none;align=center;verticalAlign=middle;whiteSpace=wrap;rounded=0;fontFamily=Roboto;fontSource=https%3A%2F%2Ffonts.googleapis.com%2Fcss%3Ffamily%3DRoboto;fontSize=15;" parent="1" vertex="1">
          <mxGeometry x="17.75" y="444" width="103.5" height="30" as="geometry" />
        </mxCell>
        <mxCell id="4DpClMkkZlTGhRyB2elV-112" value="" style="endArrow=classic;startArrow=classic;html=1;rounded=0;strokeWidth=3;entryX=-0.03;entryY=0.492;entryDx=0;entryDy=0;entryPerimeter=0;" parent="1" target="4DpClMkkZlTGhRyB2elV-18" edge="1">
          <mxGeometry width="50" height="50" relative="1" as="geometry">
            <mxPoint x="121.25" y="394.57" as="sourcePoint" />
            <mxPoint x="183.25" y="393.69" as="targetPoint" />
          </mxGeometry>
        </mxCell>
        <mxCell id="4DpClMkkZlTGhRyB2elV-114" value="Docker" style="text;html=1;strokeColor=none;fillColor=none;align=center;verticalAlign=middle;whiteSpace=wrap;rounded=0;fontFamily=Roboto;fontSource=https%3A%2F%2Ffonts.googleapis.com%2Fcss%3Ffamily%3DRoboto;fontSize=15;" parent="1" vertex="1">
          <mxGeometry x="238.75" y="130.86" width="80" height="30" as="geometry" />
        </mxCell>
        <mxCell id="4DpClMkkZlTGhRyB2elV-116" value="" style="endArrow=classic;startArrow=none;html=1;rounded=0;strokeWidth=3;entryX=0.477;entryY=0.969;entryDx=0;entryDy=0;entryPerimeter=0;exitX=0.122;exitY=0.42;exitDx=0;exitDy=0;exitPerimeter=0;startFill=0;" parent="1" target="4DpClMkkZlTGhRyB2elV-75" edge="1">
          <mxGeometry width="50" height="50" relative="1" as="geometry">
            <mxPoint x="219.20999999999998" y="344.69019999999995" as="sourcePoint" />
            <mxPoint x="283.43" y="321.42" as="targetPoint" />
          </mxGeometry>
        </mxCell>
        <mxCell id="4DpClMkkZlTGhRyB2elV-120" value="" style="shape=image;verticalLabelPosition=bottom;labelBackgroundColor=default;verticalAlign=top;aspect=fixed;imageAspect=0;image=https://www.freepnglogos.com/uploads/plus-icon/plus-icon-plus-math-icon-download-icons-9.png;" parent="1" vertex="1">
          <mxGeometry x="322.07" y="86.8" width="44.06" height="44.06" as="geometry" />
        </mxCell>
        <mxCell id="4DpClMkkZlTGhRyB2elV-127" value="" style="endArrow=classic;startArrow=none;html=1;rounded=0;strokeWidth=3;entryX=0.115;entryY=1.044;entryDx=0;entryDy=0;entryPerimeter=0;exitX=0.231;exitY=0.42;exitDx=0;exitDy=0;exitPerimeter=0;startFill=0;" parent="1" source="4DpClMkkZlTGhRyB2elV-107" target="4DpClMkkZlTGhRyB2elV-81" edge="1">
          <mxGeometry width="50" height="50" relative="1" as="geometry">
            <mxPoint x="253.25" y="356.69019999999995" as="sourcePoint" />
            <mxPoint x="253.29000000000002" y="298.69" as="targetPoint" />
            <Array as="points">
              <mxPoint x="278.25" y="283.69" />
            </Array>
          </mxGeometry>
        </mxCell>
        <mxCell id="4DpClMkkZlTGhRyB2elV-128" value="" style="endArrow=classic;startArrow=none;html=1;rounded=0;strokeWidth=3;startFill=0;exitX=0.282;exitY=0.467;exitDx=0;exitDy=0;exitPerimeter=0;" parent="1" source="4DpClMkkZlTGhRyB2elV-107" edge="1">
          <mxGeometry width="50" height="50" relative="1" as="geometry">
            <mxPoint x="263.25" y="373.69" as="sourcePoint" />
            <mxPoint x="323.25" y="303.69" as="targetPoint" />
            <Array as="points">
              <mxPoint x="293.25" y="323.69" />
            </Array>
          </mxGeometry>
        </mxCell>
        <mxCell id="4DpClMkkZlTGhRyB2elV-129" value="" style="endArrow=classic;startArrow=none;html=1;rounded=0;strokeWidth=3;startFill=0;exitX=0.282;exitY=0.514;exitDx=0;exitDy=0;exitPerimeter=0;entryX=0.436;entryY=0.514;entryDx=0;entryDy=0;entryPerimeter=0;" parent="1" source="4DpClMkkZlTGhRyB2elV-107" target="4DpClMkkZlTGhRyB2elV-107" edge="1">
          <mxGeometry width="50" height="50" relative="1" as="geometry">
            <mxPoint x="263.25" y="393.69" as="sourcePoint" />
            <mxPoint x="313.25" y="383.69" as="targetPoint" />
          </mxGeometry>
        </mxCell>
        <mxCell id="4DpClMkkZlTGhRyB2elV-130" value="" style="endArrow=classic;startArrow=none;html=1;rounded=0;strokeWidth=3;exitX=0.122;exitY=0.42;exitDx=0;exitDy=0;exitPerimeter=0;startFill=0;entryX=0.436;entryY=0.724;entryDx=0;entryDy=0;entryPerimeter=0;" parent="1" target="4DpClMkkZlTGhRyB2elV-107" edge="1">
          <mxGeometry width="50" height="50" relative="1" as="geometry">
            <mxPoint x="255.11" y="413.69019999999995" as="sourcePoint" />
            <mxPoint x="323.25" y="404.19" as="targetPoint" />
            <Array as="points">
              <mxPoint x="283.25" y="453.69" />
            </Array>
          </mxGeometry>
        </mxCell>
        <mxCell id="4DpClMkkZlTGhRyB2elV-131" value="" style="endArrow=classic;startArrow=none;html=1;rounded=0;strokeWidth=3;exitX=0.231;exitY=0.677;exitDx=0;exitDy=0;exitPerimeter=0;startFill=0;" parent="1" source="4DpClMkkZlTGhRyB2elV-107" edge="1">
          <mxGeometry width="50" height="50" relative="1" as="geometry">
            <mxPoint x="251.11" y="452.19019999999995" as="sourcePoint" />
            <mxPoint x="323.25" y="536.69" as="targetPoint" />
            <Array as="points">
              <mxPoint x="273.25" y="503.69" />
            </Array>
          </mxGeometry>
        </mxCell>
        <mxCell id="4DpClMkkZlTGhRyB2elV-133" value="" style="endArrow=classic;startArrow=classic;html=1;rounded=0;strokeWidth=3;startFill=1;" parent="1" edge="1">
          <mxGeometry width="50" height="50" relative="1" as="geometry">
            <mxPoint x="398.25" y="298.69" as="sourcePoint" />
            <mxPoint x="448.25" y="298.69" as="targetPoint" />
          </mxGeometry>
        </mxCell>
        <mxCell id="4DpClMkkZlTGhRyB2elV-20" value="" style="shape=image;verticalLabelPosition=bottom;labelBackgroundColor=default;verticalAlign=top;aspect=fixed;imageAspect=0;image=https://upload.wikimedia.org/wikipedia/commons/a/a3/Adguard.png;" parent="1" vertex="1">
          <mxGeometry x="339.7099999999999" y="180.88" width="48.08" height="50" as="geometry" />
        </mxCell>
        <mxCell id="4DpClMkkZlTGhRyB2elV-81" value="AdGuard Home" style="text;html=1;strokeColor=none;fillColor=none;align=center;verticalAlign=middle;whiteSpace=wrap;rounded=0;fontFamily=Roboto;fontSource=https%3A%2F%2Ffonts.googleapis.com%2Fcss%3Ffamily%3DRoboto;fontSize=15;" parent="1" vertex="1">
          <mxGeometry x="303.25" y="226.88" width="123" height="30" as="geometry" />
        </mxCell>
        <mxCell id="4DpClMkkZlTGhRyB2elV-78" value="" style="shape=image;verticalLabelPosition=bottom;labelBackgroundColor=default;verticalAlign=top;aspect=fixed;imageAspect=0;image=https://docs.checkmk.com/latest/images/grafana_logo.png;" parent="1" vertex="1">
          <mxGeometry x="329.25" y="256.88" width="69" height="69" as="geometry" />
        </mxCell>
        <mxCell id="4DpClMkkZlTGhRyB2elV-79" value="Grafana" style="text;html=1;strokeColor=none;fillColor=none;align=center;verticalAlign=middle;whiteSpace=wrap;rounded=0;fontFamily=Roboto;fontSource=https%3A%2F%2Ffonts.googleapis.com%2Fcss%3Ffamily%3DRoboto;fontSize=15;" parent="1" vertex="1">
          <mxGeometry x="304.25" y="323.38" width="123" height="30" as="geometry" />
        </mxCell>
        <mxCell id="4DpClMkkZlTGhRyB2elV-30" value="" style="shape=image;verticalLabelPosition=bottom;labelBackgroundColor=default;verticalAlign=top;aspect=fixed;imageAspect=0;image=https://static-00.iconduck.com/assets.00/passbolt-icon-512x471-u3jpbffe.png;" parent="1" vertex="1">
          <mxGeometry x="329.1399999999999" y="353.38" width="65.22" height="60" as="geometry" />
        </mxCell>
        <mxCell id="4DpClMkkZlTGhRyB2elV-85" value="PassBolt" style="text;html=1;strokeColor=none;fillColor=none;align=center;verticalAlign=middle;whiteSpace=wrap;rounded=0;fontFamily=Roboto;fontSource=https%3A%2F%2Ffonts.googleapis.com%2Fcss%3Ffamily%3DRoboto;fontSize=15;" parent="1" vertex="1">
          <mxGeometry x="304.25" y="413.76" width="123" height="30" as="geometry" />
        </mxCell>
        <mxCell id="4DpClMkkZlTGhRyB2elV-25" value="" style="shape=image;verticalLabelPosition=bottom;labelBackgroundColor=default;verticalAlign=top;aspect=fixed;imageAspect=0;image=https://cdn.icon-icons.com/icons2/2699/PNG/512/nextcloud_logo_icon_168948.png;" parent="1" vertex="1">
          <mxGeometry x="329.75" y="437" width="70" height="70" as="geometry" />
        </mxCell>
        <mxCell id="4DpClMkkZlTGhRyB2elV-84" value="NextCloud" style="text;html=1;strokeColor=none;fillColor=none;align=center;verticalAlign=middle;whiteSpace=wrap;rounded=0;fontFamily=Roboto;fontSource=https%3A%2F%2Ffonts.googleapis.com%2Fcss%3Ffamily%3DRoboto;fontSize=15;" parent="1" vertex="1">
          <mxGeometry x="303.25" y="484" width="123" height="30" as="geometry" />
        </mxCell>
        <mxCell id="4DpClMkkZlTGhRyB2elV-26" value="" style="shape=image;verticalLabelPosition=bottom;labelBackgroundColor=default;verticalAlign=top;aspect=fixed;imageAspect=0;image=https://uptime.kuma.pet/img/icon.svg;" parent="1" vertex="1">
          <mxGeometry x="338.25" y="507.0000000000001" width="60" height="60" as="geometry" />
        </mxCell>
        <mxCell id="4DpClMkkZlTGhRyB2elV-86" value="Uptime-Kuma" style="text;html=1;strokeColor=none;fillColor=none;align=center;verticalAlign=middle;whiteSpace=wrap;rounded=0;fontFamily=Roboto;fontSource=https%3A%2F%2Ffonts.googleapis.com%2Fcss%3Ffamily%3DRoboto;fontSize=15;" parent="1" vertex="1">
          <mxGeometry x="304.25" y="562.0000000000001" width="123" height="30" as="geometry" />
        </mxCell>
        <mxCell id="4DpClMkkZlTGhRyB2elV-80" value="Prometheus" style="text;html=1;strokeColor=none;fillColor=none;align=center;verticalAlign=middle;whiteSpace=wrap;rounded=0;fontFamily=Roboto;fontSource=https%3A%2F%2Ffonts.googleapis.com%2Fcss%3Ffamily%3DRoboto;fontSize=15;" parent="1" vertex="1">
          <mxGeometry x="423.25" y="322.44" width="123" height="30" as="geometry" />
        </mxCell>
        <mxCell id="4DpClMkkZlTGhRyB2elV-24" value="" style="shape=image;verticalLabelPosition=bottom;labelBackgroundColor=default;verticalAlign=top;aspect=fixed;imageAspect=0;image=https://upload.wikimedia.org/wikipedia/commons/thumb/3/38/Prometheus_software_logo.svg/2066px-Prometheus_software_logo.svg.png;" parent="1" vertex="1">
          <mxGeometry x="454.5" y="262.44" width="60.5" height="60" as="geometry" />
        </mxCell>
        <mxCell id="4DpClMkkZlTGhRyB2elV-96" value="" style="endArrow=none;html=1;rounded=0;strokeWidth=3;fillColor=#f8cecc;strokeColor=#FF9500;exitX=0.698;exitY=0.042;exitDx=0;exitDy=0;exitPerimeter=0;entryX=0.5;entryY=0;entryDx=0;entryDy=0;" parent="1" source="4DpClMkkZlTGhRyB2elV-94" target="4DpClMkkZlTGhRyB2elV-99" edge="1">
          <mxGeometry width="50" height="50" relative="1" as="geometry">
            <mxPoint x="-46.25" y="337.5" as="sourcePoint" />
            <mxPoint x="85" y="378.5" as="targetPoint" />
          </mxGeometry>
        </mxCell>
        <mxCell id="4DpClMkkZlTGhRyB2elV-97" value="" style="endArrow=none;html=1;rounded=0;strokeWidth=3;fillColor=#f8cecc;strokeColor=#FF9500;exitX=0.698;exitY=0.958;exitDx=0;exitDy=0;exitPerimeter=0;entryX=0.5;entryY=1;entryDx=0;entryDy=0;" parent="1" source="4DpClMkkZlTGhRyB2elV-94" target="4DpClMkkZlTGhRyB2elV-99" edge="1">
          <mxGeometry width="50" height="50" relative="1" as="geometry">
            <mxPoint x="-46.25" y="437.5" as="sourcePoint" />
            <mxPoint x="85" y="387.5" as="targetPoint" />
          </mxGeometry>
        </mxCell>
        <mxCell id="4DpClMkkZlTGhRyB2elV-99" value="" style="ellipse;whiteSpace=wrap;html=1;aspect=fixed;strokeColor=#FF9500;fillColor=none;strokeWidth=3;" parent="1" vertex="1">
          <mxGeometry x="23.75" y="367.5" width="26.25" height="26.25" as="geometry" />
        </mxCell>
        <mxCell id="4DpClMkkZlTGhRyB2elV-19" value="" style="shape=image;verticalLabelPosition=bottom;labelBackgroundColor=default;verticalAlign=top;aspect=fixed;imageAspect=0;image=https://gnulinux.ch/bl-content/uploads/pages/21d48109461a5a4809df8924600e170b/cloudflare_logo.png;" parent="1" vertex="1">
          <mxGeometry x="-73.785625" y="372.70500000000004" width="60.3203125" height="27.34375" as="geometry" />
        </mxCell>
        <mxCell id="4DpClMkkZlTGhRyB2elV-94" value="" style="ellipse;whiteSpace=wrap;html=1;aspect=fixed;strokeColor=#FF9500;fillColor=none;strokeWidth=3;" parent="1" vertex="1">
          <mxGeometry x="-85" y="345" width="82.75" height="82.75" as="geometry" />
        </mxCell>
        <mxCell id="4DpClMkkZlTGhRyB2elV-61" value="Load&lt;br&gt;Balancer" style="text;html=1;strokeColor=none;fillColor=none;align=center;verticalAlign=middle;whiteSpace=wrap;rounded=0;fontFamily=Roboto;fontSource=https%3A%2F%2Ffonts.googleapis.com%2Fcss%3Ffamily%3DRoboto;fontSize=15;" parent="1" vertex="1">
          <mxGeometry x="-475" y="568" width="100" height="30" as="geometry" />
        </mxCell>
        <mxCell id="4DpClMkkZlTGhRyB2elV-135" value="" style="shape=image;verticalLabelPosition=bottom;labelBackgroundColor=default;verticalAlign=top;aspect=fixed;imageAspect=0;image=https://cdn-icons-png.flaticon.com/128/2028/2028266.png;rotation=90;" parent="1" vertex="1">
          <mxGeometry x="-450" y="510" width="54" height="54" as="geometry" />
        </mxCell>
        <mxCell id="4DpClMkkZlTGhRyB2elV-136" value="" style="shape=image;verticalLabelPosition=bottom;labelBackgroundColor=default;verticalAlign=top;aspect=fixed;imageAspect=0;image=https://static-00.iconduck.com/assets.00/lets-encrypt-icon-512x398-p2yz53mj.png;" parent="1" vertex="1">
          <mxGeometry x="25.119999999999976" y="523" width="88.76" height="69" as="geometry" />
        </mxCell>
        <mxCell id="4DpClMkkZlTGhRyB2elV-137" value="" style="endArrow=classic;startArrow=classic;html=1;rounded=0;strokeWidth=3;entryX=0.094;entryY=0.668;entryDx=0;entryDy=0;entryPerimeter=0;fillColor=#f5f5f5;strokeColor=#666666;dashed=1;" parent="1" target="4DpClMkkZlTGhRyB2elV-107" edge="1">
          <mxGeometry width="50" height="50" relative="1" as="geometry">
            <mxPoint x="120" y="540" as="sourcePoint" />
            <mxPoint x="203.75" y="474" as="targetPoint" />
          </mxGeometry>
        </mxCell>
        <mxCell id="4DpClMkkZlTGhRyB2elV-141" value="" style="shape=image;verticalLabelPosition=bottom;labelBackgroundColor=default;verticalAlign=top;aspect=fixed;imageAspect=0;image=https://cdn-icons-png.flaticon.com/512/2333/2333249.png;" parent="1" vertex="1">
          <mxGeometry x="134" y="465" width="45" height="45" as="geometry" />
        </mxCell>
      </root>
    </mxGraphModel>
  </diagram>
</mxfile>
